<svg width="21" height="22" viewBox="0 0 21 22" fill="none" xmlns="http://www.w3.org/2000/svg">
<path d="M1.60066 0.109822C1.05439 -0.146584 0.390135 0.0612903 0.11697 0.574102C-0.156132 1.08688 0.0652861 1.71047 0.611553 1.96688L1.72127 2.48775C2.06382 2.64853 2.29338 2.96424 2.32807 3.32228C2.35513 3.60154 2.38136 3.87825 2.40727 4.15224L2.41034 4.18485C3.0317 10.7546 3.50076 15.7143 11.5566 15.7143C19.9614 15.7143 20.5175 10.1148 21 5.2381C21 4.65952 20.5297 4.19048 19.9494 4.19048H5.54448C5.02508 4.19048 4.59326 3.79273 4.54425 3.27565C4.5398 3.22863 4.53528 3.18152 4.53071 3.13432C4.42664 2.0602 3.73802 1.11307 2.71038 0.630722L1.60066 0.109822Z" fill="#F5F5F5"/>
<path d="M8.5 22C9.66044 22 10.6012 21.0619 10.6012 19.9048C10.6012 18.7476 9.66044 17.8095 8.5 17.8095C7.33956 17.8095 6.3988 18.7476 6.3988 19.9048C6.3988 21.0619 7.33956 22 8.5 22Z" fill="#F5F5F5"/>
<path d="M16.8036 19.9048C16.8036 21.0619 15.8628 22 14.7024 22C13.542 22 12.6012 21.0619 12.6012 19.9048C12.6012 18.7476 13.542 17.8095 14.7024 17.8095C15.8628 17.8095 16.8036 18.7476 16.8036 19.9048Z" fill="#F5F5F5"/>
</svg>
